<svg width="2134" height="1284" viewBox="0 0 2134 1284" fill="none" xmlns="http://www.w3.org/2000/svg">
<path fill-rule="evenodd" clip-rule="evenodd" d="M1067.54 1117.51C1179.95 1221.09 1330.91 1283.91 1495.11 1283.91C1847.74 1283.91 2133.15 996.296 2133.15 642.545C2133.15 287.718 1847.74 0.0878906 1495.11 0.0878906C1330.91 0.0878906 1179.95 62.9005 1067.54 166.49C938.612 284.398 857.059 454.107 857.059 642.545C857.072 830.983 938.612 1000.71 1067.54 1117.51Z" fill="#E9B040"/>
<path fill-rule="evenodd" clip-rule="evenodd" d="M1273.62 574.233C1271.42 551.095 1267.01 529.06 1262.6 505.909H872.492C876.902 482.771 883.516 460.735 890.118 438.686H1243.87C1236.19 415.488 1227.36 392.685 1217.42 370.362H917.679C928.704 347.02 940.84 324.219 954.046 302.037H1179.97C1165.43 278.502 1149.23 256.037 1131.49 234.815H1002.54C1022.49 210.457 1044.22 187.619 1067.56 166.49C954.059 64.0029 804.18 0.0878906 638.881 0.0878906C287.348 0.0878906 0.833008 287.718 0.833008 642.545C0.833008 996.296 287.348 1283.91 638.881 1283.91C804.18 1283.91 954.046 1221.09 1067.56 1117.51C1090.54 1096.75 1111.91 1074.28 1131.49 1050.28H1002.54C984.901 1028.24 969.48 1006.2 954.046 981.951H1179.97C1194.17 960.16 1206.7 937.319 1217.44 913.626H917.679C907.757 891.591 897.848 869.555 890.118 846.391H1243.87C1251.57 824.355 1257.1 801.23 1262.58 778.066C1266.99 756.031 1271.4 732.906 1273.61 709.742C1275.84 687.4 1276.95 664.96 1276.93 642.506C1276.93 619.407 1275.83 596.269 1273.62 574.233Z" fill="#CC2131"/>
<path fill-rule="evenodd" clip-rule="evenodd" d="M1489.62 494.885L1477.48 565.414C1453.24 553.288 1435.6 547.788 1415.77 547.788C1363.97 547.788 1327.61 598.474 1327.61 670.106C1327.61 719.703 1351.86 749.442 1392.65 749.442C1409.16 749.442 1429 743.943 1451.04 732.932L1438.92 806.743C1413.57 813.357 1397.04 816.678 1378.3 816.678C1303.37 816.678 1257.09 762.672 1257.09 675.631C1257.09 559.915 1321 478.361 1412.46 478.361C1424.58 478.361 1435.59 479.464 1444.41 481.669L1471.97 488.283C1480.8 491.59 1483.01 492.693 1489.62 494.885ZM1267.01 543.379H1260.39C1237.27 543.379 1224.04 554.403 1203.09 586.348L1209.71 545.571H1146.88L1103.93 810.05H1173.37C1198.7 648.058 1205.31 620.51 1238.37 620.51H1242.78C1249.39 588.552 1258.2 565.401 1269.22 544.468L1267.01 543.379ZM868.096 806.743C849.368 813.357 833.934 815.562 818.513 815.562C783.248 815.562 763.404 795.732 763.404 757.172C763.404 750.558 764.507 741.751 765.609 734.021L770.019 707.576L773.326 686.656L803.079 505.909H871.403L863.686 545.584H898.951L890.132 610.601H854.867L836.139 720.805C835.036 725.215 835.036 728.535 835.036 731.829C835.036 745.059 841.651 750.571 858.174 750.571C865.891 750.571 872.493 750.571 876.903 748.366L868.096 806.743ZM602.514 629.329C602.514 662.402 617.935 685.527 654.302 703.166C682.953 716.395 687.362 720.792 687.362 731.816C687.362 748.353 675.236 756.057 647.688 756.057C626.755 756.057 608.013 752.763 585.978 746.148L576.056 806.743L579.363 807.858L591.49 810.063C595.887 811.153 601.412 812.268 610.218 812.268C625.639 814.473 638.868 814.473 647.688 814.473C720.409 814.473 754.585 786.912 754.585 726.317C754.585 689.937 740.266 668.991 706.104 652.48C676.351 639.251 673.044 635.957 673.044 623.83C673.044 609.512 685.17 602.897 707.206 602.897C720.435 602.897 739.164 603.999 756.802 606.204L766.711 545.597C749.085 542.289 721.538 540.084 706.104 540.084C628.96 540.071 601.412 580.848 602.514 629.329ZM2017.48 810.063H1952.45L1955.77 784.707C1937.03 804.538 1917.18 813.357 1891.83 813.357C1841.14 813.357 1808.08 770.402 1808.08 704.282C1808.08 616.113 1859.88 541.174 1920.48 541.174C1948.04 541.174 1967.87 553.301 1986.62 577.541L2002.04 484.976H2070.37L2017.48 810.063ZM1916.08 748.353C1948.05 748.353 1970.08 710.883 1970.08 659.082C1970.08 624.92 1957.95 607.281 1933.7 607.281C1902.85 607.281 1879.72 643.648 1879.72 695.449C1879.72 730.727 1891.84 748.353 1916.08 748.353ZM1079.67 804.538C1055.42 812.268 1033.38 815.562 1008.04 815.562C930.896 815.562 891.221 774.798 891.221 696.552C891.221 606.191 941.92 538.969 1011.35 538.969C1068.65 538.969 1105 576.439 1105 634.841C1105 654.685 1102.8 673.427 1096.18 700.961H959.559C958.456 704.282 958.456 706.486 958.456 708.691C958.456 739.546 979.403 754.967 1019.06 754.967C1044.41 754.967 1066.44 750.558 1090.7 738.431L1079.67 804.538ZM1041.1 646.955V633.739C1041.1 611.703 1028.97 599.577 1008.04 599.577C986.004 599.577 970.57 616.113 963.956 646.955H1041.1ZM339.137 810.063H270.812L310.487 559.902L221.229 810.063H173.838L168.325 562.107L126.459 810.063H62.5439L116.537 484.976H215.717L219.024 686.643L285.131 484.976H393.13L339.137 810.063ZM509.949 692.142C503.334 692.142 500.027 691.053 494.515 691.053C455.943 691.053 436.112 705.371 436.112 731.816C436.112 748.353 444.932 758.262 460.353 758.262C489.003 758.262 508.847 731.817 509.949 692.142ZM560.635 810.063H503.321L504.424 782.502C486.785 804.538 463.647 814.473 431.689 814.473C394.22 814.473 368.877 785.823 368.877 742.841C368.877 677.836 412.948 640.367 490.092 640.367C497.809 640.367 507.731 641.469 518.742 642.559C520.947 633.752 520.947 630.445 520.947 626.035C520.947 608.409 508.821 601.795 476.863 601.795C457.032 601.795 434.984 603.999 419.563 608.409L409.641 611.716L403.026 612.819L412.948 553.314C447.11 543.392 470.248 540.084 495.604 540.084C555.11 540.084 587.067 566.53 587.067 617.216C587.067 630.445 585.965 640.367 581.555 670.119L566.121 763.8L563.916 780.31L562.814 793.54L561.711 803.474L560.635 810.063ZM1600.93 692.142C1593.2 692.142 1589.9 691.053 1585.51 691.053C1545.83 691.053 1525.97 705.371 1525.97 731.816C1525.97 748.353 1535.91 758.262 1551.33 758.262C1578.89 758.262 1599.81 731.817 1600.93 692.142ZM1651.61 810.063H1594.31L1595.4 782.502C1577.78 804.538 1554.64 814.473 1522.68 814.473C1485.21 814.473 1459.85 785.823 1459.85 742.841C1459.85 677.836 1503.93 640.367 1581.07 640.367C1588.8 640.367 1598.72 641.469 1608.63 642.559C1610.84 633.752 1611.95 630.445 1611.95 626.035C1611.95 608.409 1599.81 601.795 1567.88 601.795C1548.02 601.795 1524.9 603.999 1509.46 608.409L1500.64 611.716L1494.03 612.819L1503.94 553.314C1538.11 543.392 1561.24 540.084 1586.6 540.084C1646.1 540.084 1676.96 566.53 1676.96 617.216C1676.96 630.445 1676.96 640.367 1671.46 670.119L1657.12 763.8L1654.92 780.31L1652.71 793.54L1651.63 803.474L1651.61 810.063ZM1836.74 543.379H1830.13C1807 543.379 1793.77 554.403 1772.83 586.348L1779.44 545.571H1716.62L1674.74 810.05H1743.06C1768.42 648.058 1775.03 620.51 1808.09 620.51H1812.5C1819.12 588.552 1827.92 565.401 1838.95 544.468L1836.74 543.379Z" fill="white"/>
</svg>
