<svg width="2301" height="582" viewBox="0 0 2301 582" fill="none" xmlns="http://www.w3.org/2000/svg">
<path d="M420.255 0.371094C188.66 0.371094 0.776367 123.454 0.776367 274.911C0.776367 278.745 0.776367 289.482 0.776367 291.015C0.776367 451.291 164.887 581.276 420.255 581.276C675.623 581.276 839.733 451.291 839.733 291.015V274.911C839.733 123.454 651.85 0.371094 420.255 0.371094ZM820.562 244.236C729.304 264.558 661.436 294.083 644.181 301.368C604.304 266.475 512.279 186.721 487.356 167.932C473.169 157.196 463.583 151.445 454.764 149.144C450.93 147.994 445.562 146.844 438.66 146.844C432.141 146.844 425.623 147.994 418.338 150.294C402.233 155.279 386.129 168.316 370.792 180.586V180.969C356.221 192.472 341.267 204.359 330.148 207.043C325.163 208.193 320.178 208.577 315.194 208.577C302.54 208.577 291.037 204.742 286.819 199.374C286.052 198.607 286.436 197.074 288.353 194.773L288.736 194.39L323.629 156.813C351.236 129.206 376.927 103.515 436.743 101.982C437.893 101.982 438.66 101.982 439.81 101.982C477.003 101.982 514.197 118.469 518.031 120.387C552.924 137.258 588.583 146.077 625.01 146.077C662.586 146.077 701.313 136.874 741.957 118.086C783.752 154.129 812.126 197.457 820.562 244.236ZM420.255 16.4754C543.338 16.4754 653.384 51.7514 727.387 107.35C691.727 122.687 657.602 130.739 624.626 130.739C590.884 130.739 557.141 122.687 524.549 106.583C523.016 105.816 481.988 86.2606 439.043 86.2606C437.893 86.2606 436.743 86.2606 435.592 86.2606C385.362 87.4109 357.371 105.049 338.2 120.77C319.795 121.153 303.69 125.755 289.503 129.589C276.85 133.04 266.114 136.107 255.378 136.107C251.16 136.107 243.108 135.724 242.341 135.724C230.071 135.34 168.721 120.386 119.641 101.982C194.028 49.4508 301.006 16.4754 420.255 16.4754ZM105.838 112.718C156.835 133.807 218.951 149.911 238.89 151.061C244.258 151.445 250.009 152.212 256.144 152.212C269.181 152.212 282.218 148.377 294.871 144.926C302.157 143.009 310.592 140.709 319.028 138.791C316.727 141.092 314.427 143.393 312.126 145.693L276.467 184.037C273.783 186.721 267.648 194.389 271.482 203.592C273.016 207.426 276.467 210.877 280.684 213.945C289.12 219.696 304.457 223.531 318.261 223.531C323.629 223.531 328.614 223.147 333.215 221.997C348.169 218.546 363.89 206.276 380.378 192.856C393.414 182.503 412.203 169.083 426.773 165.248C430.991 164.098 435.592 163.331 439.81 163.331C440.96 163.331 442.111 163.331 443.261 163.715C452.847 164.865 462.049 168.316 478.154 180.586C507.295 202.442 636.513 315.555 637.663 316.705C637.663 316.705 646.098 323.991 645.332 335.877C644.948 342.396 641.497 348.147 634.979 352.365C629.611 355.816 623.859 357.733 618.108 357.733C609.289 357.733 603.537 353.515 603.154 353.515C602.77 353.132 558.292 312.488 542.187 298.684C539.503 296.383 537.203 294.466 534.519 294.466C532.985 294.466 531.835 295.233 531.068 296C528.384 299.067 531.451 303.669 534.902 306.353L586.666 358.5C586.666 358.5 593.184 364.635 593.951 372.687C594.335 381.123 590.117 388.408 581.681 394.159C575.546 398.377 569.411 400.294 563.276 400.294C555.224 400.294 549.856 396.844 548.706 395.693L541.421 388.408C528 374.988 513.813 361.184 503.46 352.748C500.776 350.831 498.476 348.914 495.792 348.914C494.641 348.914 493.491 349.298 492.341 350.448C491.19 351.598 490.424 353.899 493.108 358.117C494.258 359.65 495.792 361.184 495.792 361.184L533.368 403.745C533.752 404.129 541.037 412.948 534.135 421.767L532.602 423.301C531.451 424.451 530.301 425.601 529.151 426.752C522.632 432.12 514.197 432.503 510.746 432.503C508.829 432.503 507.295 432.503 505.761 432.12C501.927 431.353 499.626 430.586 498.476 429.052L498.092 428.669C496.175 426.368 477.003 407.196 461.283 394.159C459.365 392.242 456.681 390.325 453.997 390.325C452.847 390.325 451.697 390.709 450.546 391.859C447.479 395.31 452.08 400.294 453.997 402.212L486.206 437.871C486.206 438.255 485.822 439.021 485.056 440.172C483.905 441.705 480.071 445.54 468.184 447.074C466.651 447.074 465.5 447.457 463.967 447.457C452.08 447.457 439.043 441.705 432.525 438.255C435.592 431.736 437.126 424.834 437.126 417.932C437.126 391.475 415.654 370.003 389.197 370.003C388.813 370.003 388.046 370.003 387.663 370.003C388.43 357.733 386.896 335.11 363.123 324.758C356.221 321.69 349.703 320.156 343.184 320.156C338.2 320.156 333.215 320.923 328.614 322.84C323.629 313.255 315.577 306.353 305.224 302.902C299.473 300.985 293.721 299.834 287.97 299.834C278 299.834 269.181 302.902 261.129 308.27C253.46 298.684 241.957 292.933 229.687 292.933C218.951 292.933 208.598 297.15 200.93 304.819C190.96 297.15 151.083 271.843 44.8715 247.687C39.8868 246.537 28.3837 243.086 21.0985 241.169C30.3009 192.472 60.5923 148.761 105.838 112.718ZM302.924 389.942L301.773 388.791H300.623C299.856 388.791 298.706 389.175 297.556 389.942C292.187 393.776 286.819 395.693 281.835 395.693C278.767 395.693 276.083 394.926 273.016 394.159C248.476 384.574 250.393 361.184 251.543 354.282C251.543 352.748 251.543 351.598 250.393 350.831L248.476 349.297L246.942 350.831C241.957 355.432 235.822 358.117 229.304 358.117C215.117 358.117 203.614 346.613 203.614 332.426C203.614 318.239 215.117 306.736 229.304 306.736C241.957 306.736 253.077 316.322 254.611 328.975L255.378 335.877L259.212 330.126C259.595 329.359 269.948 313.638 289.12 313.638C292.571 313.638 296.405 314.405 300.24 315.555C315.577 320.156 317.878 333.96 318.261 339.712C318.644 343.163 320.945 343.162 321.329 343.162C322.479 343.162 323.629 342.396 324.396 341.629C327.08 338.561 333.598 333.577 343.184 333.577C347.786 333.577 352.387 334.727 357.371 336.644C381.528 346.997 370.408 377.672 370.408 378.055C368.491 383.04 368.108 385.34 370.025 386.491L370.792 386.874H371.559C372.709 386.874 373.859 386.491 376.16 385.724C379.611 384.574 384.212 383.04 389.197 383.04C407.218 383.423 422.172 397.994 422.172 416.015C422.172 434.037 407.218 448.991 389.197 448.991C371.559 448.991 356.988 435.187 356.221 417.549C356.221 416.015 355.838 412.181 352.77 412.181C351.237 412.181 350.086 412.948 348.936 414.098C345.102 417.549 340.117 421.383 332.832 421.383C329.381 421.383 325.93 420.617 322.095 419.083C303.307 411.414 302.924 398.761 303.69 393.393C303.69 392.242 304.074 391.092 302.924 389.942ZM420.255 532.58C197.479 532.58 16.8807 417.166 16.8807 274.528C16.8807 268.776 17.2641 263.024 18.031 257.273C19.9481 257.656 37.5862 261.874 41.0371 262.641C149.549 286.797 185.592 311.721 191.727 316.705C189.81 321.69 188.66 327.058 188.66 332.426C188.66 355.049 207.065 373.071 229.304 373.071C231.988 373.071 234.289 372.687 236.973 372.304C240.424 388.791 251.16 401.445 267.648 407.963C272.632 409.88 277.233 410.647 282.218 410.647C285.286 410.647 288.353 410.264 291.421 409.497C294.488 417.166 301.39 426.751 316.727 433.27C322.095 435.57 327.463 436.721 332.832 436.721C337.049 436.721 341.267 435.954 345.102 434.42C352.387 452.442 370.025 464.328 389.58 464.328C402.617 464.328 414.887 458.96 424.089 449.758C431.758 453.975 448.246 462.028 464.733 462.028C467.034 462.028 468.951 462.028 470.868 461.644C487.356 459.727 495.025 453.209 498.476 448.224C499.243 447.457 499.626 446.307 500.009 445.54C503.844 446.69 508.062 447.457 513.046 447.457C521.865 447.457 530.684 444.39 539.503 438.255C547.939 432.12 554.074 423.301 554.841 415.632V415.248C557.908 416.015 560.592 416.015 563.66 416.015C572.862 416.015 582.065 413.331 590.5 407.58C607.371 396.46 610.055 382.273 610.055 373.071C613.123 373.837 615.807 373.837 618.875 373.837C627.694 373.837 636.129 371.153 644.181 366.169C654.534 359.65 660.669 349.297 661.819 337.411C662.586 329.359 660.286 321.307 656.068 314.405C684.059 302.518 748.092 279.129 823.246 261.874C823.629 266.092 823.629 270.31 823.629 274.911C823.629 417.166 643.031 532.58 420.255 532.58Z" fill="#0A0080"/>
<path d="M2278 84.7263C2262.66 65.5545 2239.66 55.9686 2208.6 55.9686C2177.54 55.9686 2154.53 65.5545 2139.2 84.7263C2123.86 103.898 2116.19 126.521 2116.19 152.211C2116.19 178.285 2123.86 201.291 2139.2 220.079C2154.53 238.867 2177.54 248.453 2208.6 248.453C2239.66 248.453 2262.66 238.867 2278 220.079C2293.34 201.291 2301.01 178.668 2301.01 152.211C2301.01 125.754 2293.34 103.898 2278 84.7263ZM2240.42 194.389C2233.14 204.358 2222.4 208.959 2208.6 208.959C2194.79 208.959 2184.06 203.975 2176.77 194.389C2169.49 184.42 2165.65 170.616 2165.65 152.594C2165.65 134.573 2169.49 120.769 2176.77 110.8C2184.06 101.214 2194.79 96.2293 2208.6 96.2293C2222.4 96.2293 2233.14 101.214 2240.42 110.8C2247.71 120.386 2251.54 134.573 2251.54 152.594C2251.54 170.616 2247.71 184.42 2240.42 194.389ZM1888.81 68.6221C1873.48 60.9533 1855.84 56.7355 1835.9 56.7355C1805.22 56.7355 1783.75 64.7876 1771.1 80.5085C1763.05 90.8612 1758.83 103.898 1757.68 119.619H1803.31C1804.46 112.717 1806.76 106.966 1810.21 103.131C1814.81 97.7632 1822.86 94.6956 1834.36 94.6956C1844.33 94.6956 1852 96.2294 1857.37 98.9134C1862.74 101.597 1865.04 106.966 1865.04 114.251C1865.04 120.386 1861.59 124.987 1854.69 127.671C1850.85 129.205 1844.72 130.739 1835.9 131.889L1819.79 133.806C1801.39 136.107 1787.59 139.941 1778 145.309C1760.75 155.278 1751.93 171.383 1751.93 193.622C1751.93 210.877 1757.29 223.913 1768.03 233.499C1778.77 242.702 1792.57 246.92 1809.06 247.686C1912.59 252.288 1911.44 193.239 1912.2 180.969V113.1C1911.82 91.6281 1904.15 76.6742 1888.81 68.6221ZM1864.66 171.766C1864.27 187.487 1859.67 198.607 1851.24 204.358C1842.42 210.493 1832.83 213.177 1822.48 213.177C1815.96 213.177 1810.21 211.26 1805.99 207.809C1801.39 204.358 1799.09 198.223 1799.09 190.171C1799.09 180.969 1802.92 174.45 1810.21 170.232C1814.81 167.548 1821.71 165.631 1832.06 163.714L1842.8 161.797C1848.17 160.647 1852.39 159.496 1855.45 158.346C1858.52 157.196 1861.59 155.662 1864.66 153.745V171.766ZM1653 97.3797C1664.89 97.3797 1673.32 101.214 1679.07 108.499C1682.91 113.867 1685.21 120.002 1686.36 126.904H1737.36C1734.67 101.214 1725.47 83.1925 1710.51 73.2232C1695.18 63.2539 1675.62 57.8858 1651.85 57.8858C1623.86 57.8858 1601.62 66.3214 1585.9 83.576C1569.79 100.831 1562.13 124.987 1562.13 156.045C1562.13 183.269 1569.41 205.892 1583.98 223.147C1598.55 240.401 1620.79 248.837 1651.47 248.837C1682.14 248.837 1705.15 238.484 1720.87 217.778C1730.84 205.125 1736.21 191.321 1737.36 177.134H1685.98C1684.82 186.72 1682.14 194.389 1677.16 200.524C1672.17 206.275 1664.12 209.343 1652.23 209.343C1635.75 209.343 1624.63 201.674 1618.49 186.72C1615.04 178.668 1613.51 167.932 1613.51 154.895C1613.51 141.858 1615.04 129.972 1618.49 121.536C1624.63 105.432 1636.13 97.3797 1653 97.3797ZM1547.94 57.5023C1443.26 57.5023 1449.4 150.294 1449.4 150.294V244.619H1496.94V156.429C1496.94 141.858 1498.86 131.122 1502.31 124.22C1508.83 111.95 1521.48 105.815 1540.65 105.815C1542.19 105.815 1544.1 105.815 1546.4 106.199C1548.71 106.199 1551.39 106.582 1554.46 106.966V58.6527C1552.54 58.6527 1551.01 58.2692 1550.24 58.2692C1549.47 57.5024 1548.71 57.5023 1547.94 57.5023ZM1411.44 92.7784C1403.38 80.5085 1392.65 71.6895 1380.38 65.938C1367.72 60.1864 1353.54 57.5023 1337.82 57.5023C1311.36 57.5023 1289.89 65.9379 1273.4 82.4256C1256.91 99.2968 1248.48 123.07 1248.48 154.512C1248.48 187.87 1257.68 212.027 1276.08 226.981C1294.49 241.935 1315.58 249.22 1339.73 249.22C1368.87 249.22 1391.5 240.401 1407.6 222.763C1416.42 213.561 1421.79 204.358 1424.09 195.539H1373.48C1371.56 198.223 1369.26 200.907 1366.96 202.824C1360.05 208.193 1351.24 210.11 1340.5 210.11C1330.53 210.11 1322.48 208.576 1315.19 203.975C1303.31 196.689 1296.79 184.42 1296.02 166.398H1427.54C1427.54 150.677 1427.16 138.791 1426.01 130.355C1423.71 115.785 1418.72 103.515 1411.44 92.7784ZM1296.79 134.573C1298.32 122.686 1302.54 113.484 1309.44 106.582C1315.96 99.6803 1325.55 96.2293 1337.82 96.2293C1348.94 96.2293 1358.14 99.2968 1365.81 105.815C1373.48 112.334 1377.31 121.919 1378.46 134.189H1296.79V134.573ZM1153.77 56.7355C1131.53 56.7355 1112.74 66.3214 1099.7 82.0423C1087.43 66.7049 1068.64 56.7355 1045.64 56.7355C999.242 56.7355 969.334 90.8612 969.334 136.107V244.235H1012.66V134.956C1012.66 115.018 1026.08 101.214 1045.64 101.214C1074.4 101.214 1077.08 124.987 1077.08 134.956V244.235H1120.41V134.956C1120.41 115.018 1134.21 101.214 1153.38 101.214C1182.14 101.214 1185.21 124.987 1185.21 134.956V244.235H1228.54V136.107C1229.3 89.7109 1201.31 56.7355 1153.77 56.7355ZM2054.46 33.7294V84.7263C2049.09 76.2907 2042.19 69.3889 2033.75 64.7877C2025.32 60.1865 2015.73 57.5023 2004.61 57.5023C1980.84 57.5023 1962.05 66.3214 1947.86 83.9595C1933.67 101.598 1926.39 127.288 1926.39 157.962C1926.39 184.803 1933.67 206.659 1947.86 223.53C1962.43 240.401 1990.42 248.07 2015.73 248.07C2103.15 248.07 2102.39 172.916 2102.39 172.916V0.370445C2102.39 0.370445 2054.46 -4.61417 2054.46 33.7294ZM2045.25 194.772C2038.35 204.742 2028 209.726 2014.96 209.726C2001.93 209.726 1991.57 204.742 1985.05 194.772C1978.54 184.803 1975.09 170.232 1975.09 153.361C1975.09 138.024 1978.15 124.987 1984.67 114.634C1991.19 104.282 2001.16 98.9134 2014.96 98.9134C2024.17 98.9134 2031.83 101.597 2038.74 107.349C2049.86 116.935 2055.61 133.806 2055.61 156.045C2055.99 171.766 2052.16 184.803 2045.25 194.772ZM1069.79 317.088C1030.68 315.171 1010.75 324.757 998.092 334.343C980.454 347.763 969.334 368.085 969.334 400.294V565.554H992.34C998.475 565.554 1004.61 563.254 1009.21 559.42C1014.2 554.818 1016.88 549.067 1016.88 542.165V480.048C1022.63 489.634 1029.92 496.92 1039.12 501.521C1047.94 505.739 1058.29 507.656 1069.79 507.656C1091.65 507.656 1109.67 498.837 1123.48 481.582C1137.28 463.561 1144.56 440.171 1144.56 411.413C1144.56 382.272 1138.05 361.95 1121.94 342.395C1109.67 326.674 1090.12 317.855 1069.79 317.088ZM1086.28 452.441C1079.38 462.027 1069.79 467.012 1057.52 467.012C1044.49 467.012 1034.52 462.41 1027.62 452.441C1020.71 443.622 1017.26 430.585 1017.26 413.331C1017.26 394.542 1020.33 380.739 1026.85 371.919C1033.75 362.334 1043.72 357.349 1056.37 357.349C1069.03 357.349 1079.38 362.334 1086.28 371.919C1093.18 381.505 1096.63 395.309 1096.63 413.331C1096.63 429.818 1093.18 442.855 1086.28 452.441ZM1478.15 333.959C1462.05 321.689 1445.56 315.171 1417.19 315.938C1388.43 316.705 1367.34 324.757 1354.3 342.395C1341.27 360.033 1334.75 383.039 1334.75 411.413C1334.75 435.57 1339.73 455.508 1349.32 470.462C1359.29 485.416 1370.79 495.769 1384.59 501.137C1398.4 506.505 1412.2 507.656 1426.01 504.588C1439.81 501.521 1450.93 493.469 1459.36 480.432V491.935C1458.6 506.505 1454.76 517.625 1448.63 524.91C1442.49 532.196 1435.59 536.797 1427.92 538.331C1420.25 539.864 1412.97 539.097 1405.3 535.647C1397.63 532.196 1392.26 527.211 1388.43 520.693H1338.2C1351.24 559.803 1374.63 577.058 1416.42 579.742C1483.9 584.726 1505.76 527.211 1505.76 496.536V399.527C1506.53 368.085 1495.79 347.38 1478.15 333.959ZM1458.21 429.435C1456.3 440.171 1453.61 448.223 1449.4 453.208C1440.58 465.094 1427.16 469.312 1409.13 465.861C1390.73 462.41 1381.53 444.772 1381.53 413.331C1381.53 398.76 1384.21 385.723 1389.58 374.22C1394.95 362.717 1405.68 356.966 1421.02 356.966C1432.52 356.966 1441.34 361.183 1447.09 369.236C1453.23 377.671 1456.68 386.874 1458.6 397.61C1460.13 407.962 1460.13 418.699 1458.21 429.435ZM1294.1 329.358C1278.77 321.69 1261.13 317.472 1241.19 317.472C1210.51 317.472 1189.04 325.524 1176.39 341.245C1168.34 351.597 1164.12 364.634 1162.97 380.355H1208.6C1209.75 373.453 1212.05 367.702 1215.5 363.867C1220.1 358.499 1228.15 355.432 1239.66 355.432C1249.63 355.432 1257.29 356.966 1262.66 359.65C1268.03 362.334 1270.33 367.702 1270.33 374.987C1270.33 381.122 1266.88 385.723 1259.98 388.407C1256.14 389.941 1250.01 391.475 1241.19 392.625L1225.09 394.542C1206.68 396.843 1192.49 400.677 1183.29 406.045C1166.04 416.015 1157.22 432.119 1157.22 454.358C1157.22 471.613 1162.59 484.65 1173.32 494.236C1184.06 503.438 1197.86 507.656 1214.35 508.423C1317.49 513.024 1316.34 453.975 1317.49 441.705V373.837C1317.49 351.981 1309.82 337.027 1294.1 329.358ZM1269.95 432.502C1269.56 448.223 1264.96 459.343 1256.53 465.094C1247.71 471.229 1238.12 473.913 1227.77 473.913C1221.25 473.913 1215.88 471.996 1211.28 468.545C1206.68 465.094 1204.38 458.959 1204.38 450.907C1204.38 441.705 1208.21 435.186 1215.5 430.969C1220.1 428.285 1227 426.367 1237.36 424.45L1248.09 422.533C1253.46 421.383 1257.68 420.616 1260.75 419.082C1263.81 417.932 1266.88 416.398 1269.95 414.481V432.502ZM1685.98 344.312C1670.64 325.14 1647.63 315.555 1616.57 315.555C1585.51 315.555 1562.51 325.14 1547.17 344.312C1531.83 363.484 1524.17 386.107 1524.17 411.797C1524.17 437.487 1531.83 460.877 1547.17 479.665C1562.51 498.453 1585.51 507.656 1616.57 507.656C1647.63 507.656 1670.64 498.07 1685.98 479.665C1701.31 460.877 1708.98 438.254 1708.98 411.797C1708.98 385.34 1701.31 363.484 1685.98 344.312ZM1648.4 453.591C1641.11 463.561 1630.38 468.162 1616.57 468.162C1602.77 468.162 1592.03 463.177 1584.75 453.591C1577.08 443.622 1573.63 429.818 1573.63 411.797C1573.63 393.775 1577.46 379.972 1584.75 370.002C1592.03 360.416 1602.77 355.432 1616.57 355.432C1630.38 355.432 1641.11 360.416 1648.4 370.002C1655.68 379.588 1659.52 393.775 1659.52 411.797C1659.52 430.202 1655.68 444.005 1648.4 453.591Z" fill="#0A0080"/>
</svg>
