<svg width="2500" height="810" viewBox="0 0 2500 810" fill="none" xmlns="http://www.w3.org/2000/svg">
<path d="M1628.34 -0.00976562C1450.83 -0.00976562 1292.2 91.9972 1292.2 261.987C1292.2 456.932 1573.54 470.396 1573.54 568.331C1573.54 609.567 1526.28 646.482 1445.57 646.482C1331.02 646.482 1245.41 594.903 1245.41 594.903L1208.78 766.442C1208.78 766.442 1307.4 810.01 1438.34 810.01C1632.41 810.01 1785.13 713.484 1785.13 540.591C1785.13 334.595 1502.62 321.529 1502.62 230.631C1502.62 198.324 1541.41 162.931 1621.89 162.931C1712.7 162.931 1786.79 200.443 1786.79 200.443L1822.64 34.7675C1822.64 34.7675 1742.03 -0.00976562 1628.34 -0.00976562ZM4.2993 12.4952L0 37.5027C0 37.5027 74.6797 51.1689 141.939 78.4337C228.541 109.695 234.712 127.896 249.297 184.422L408.231 797.115H621.289L949.517 12.4952H736.949L526.044 545.961L439.982 93.769C432.09 42.0173 392.11 12.4952 343.173 12.4952H4.2993ZM1034.99 12.4952L868.241 797.112H1070.94L1237.11 12.4927H1034.99V12.4952ZM2165.52 12.4952C2116.64 12.4952 2090.75 38.6639 2071.74 84.3921L1774.77 797.112H1987.34L2028.47 678.324H2287.43L2312.44 797.112H2500L2336.37 12.4952H2165.52ZM2193.17 224.475L2256.17 518.902H2087.37L2193.17 224.475Z" fill="#1434CB"/>
</svg>
